<?xml version="1.0" encoding="UTF-8" standalone="no"?>
<!-- Created with Inkscape (http://www.inkscape.org/) -->

<svg
   xmlns:dc="http://purl.org/dc/elements/1.1/"
   xmlns:cc="http://creativecommons.org/ns#"
   xmlns:rdf="http://www.w3.org/1999/02/22-rdf-syntax-ns#"
   xmlns:svg="http://www.w3.org/2000/svg"
   xmlns="http://www.w3.org/2000/svg"
   xmlns:sodipodi="http://sodipodi.sourceforge.net/DTD/sodipodi-0.dtd"
   xmlns:inkscape="http://www.inkscape.org/namespaces/inkscape"
   width="480"
   height="300"
   id="svg2"
   version="1.1"
   inkscape:version="0.91 r13725"
   sodipodi:docname="ugle-z.svg">
  <defs
     id="defs4" />
  <sodipodi:namedview
     id="base"
     pagecolor="#ffffff"
     bordercolor="#666666"
     borderopacity="1.0"
     inkscape:pageopacity="0.0"
     inkscape:pageshadow="2"
     inkscape:zoom="1.4"
     inkscape:cx="466.54221"
     inkscape:cy="171.24353"
     inkscape:document-units="px"
     inkscape:current-layer="layer1"
     showgrid="false"
     inkscape:window-width="1600"
     inkscape:window-height="851"
     inkscape:window-x="0"
     inkscape:window-y="0"
     inkscape:window-maximized="1"
     borderlayer="false" />
  <metadata
     id="metadata7">
    <rdf:RDF>
      <cc:Work
         rdf:about="">
        <dc:format>image/svg+xml</dc:format>
        <dc:type
           rdf:resource="http://purl.org/dc/dcmitype/StillImage" />
        <dc:title></dc:title>
      </cc:Work>
    </rdf:RDF>
  </metadata>
  <g
     inkscape:label="Layer 1"
     inkscape:groupmode="layer"
     id="layer1"
     transform="translate(0,-752.36218)">
    <path
       style="fill:#000000"
       d="M 102.0832,1030.7763 C 57.69572,958.40881 44.95547,931.20913 28.25543,873.15836 19.02841,841.08446 0,766.45844 0,762.34559 c 0,-1.83055 1.00616,-3.74381 2.23592,-4.25169 2.62638,-1.08465 35.31045,17.11537 53.77264,29.94312 26.5991,18.48137 64.7274,67.20096 52.59195,67.20096 -1.09883,0 -7.67285,-7.69975 -14.60895,-17.11056 C 78.70953,817.39294 66.76458,805.24613 50.71046,794.11486 37.0071,784.61353 9.08247,768.27429 9.08247,769.75753 c 0,3.03407 24.06494,93.37612 30.36422,113.99015 14.39201,47.09696 26.93093,73.55901 62.33495,131.55112 18.70369,30.6368 21.42949,37.0634 15.72039,37.0634 -1.19836,0 -8.13683,-9.7137 -15.41883,-21.5859 z m 104.65069,18.5152 c -0.47411,-0.8256 12.47437,-15.6844 28.77439,-33.0196 l 29.63642,-31.51843 -30.77301,-0.81456 c -29.51155,-0.78117 -30.773,-0.94812 -30.773,-4.07282 0,-3.15884 1.14415,-3.27154 37.50252,-3.69407 30.21763,-0.35118 37.6536,-0.0114 38.28028,1.74544 0.46626,1.30772 -10.80048,14.53096 -28.13298,33.01834 l -28.91073,30.8371 27.7172,0.8145 c 26.45577,0.7775 27.71721,0.9629 27.71721,4.0728 0,3.152 -1.14452,3.2726 -35.08815,3.6953 -20.24723,0.2522 -35.45274,-0.1978 -35.95015,-1.064 z m 152.5708,-1.0029 c -0.52814,-1.4812 6.86841,-15.1226 18.77082,-34.6189 35.40401,-57.99213 47.94293,-84.45418 62.33494,-131.55115 6.29928,-20.61402 30.36422,-110.95608 30.36422,-113.99015 0,-1.48323 -27.92462,14.856 -41.62798,24.35734 -16.05413,11.13126 -27.99908,23.27807 -43.2811,44.01255 -6.9361,9.41081 -13.51013,17.11057 -14.60896,17.11057 -12.13545,0 25.99285,-48.71959 52.59195,-67.20097 18.46219,-12.82775 51.14626,-31.02777 53.77264,-29.94311 1.22977,0.50788 2.23592,2.42114 2.23592,4.25169 0,4.11284 -19.02841,78.73887 -28.25542,110.81277 -16.70005,58.05076 -29.4403,85.25045 -73.82778,157.61786 -12.6174,20.5709 -16.51812,24.6136 -18.46925,19.1415 z M 240.42024,950.13455 c -3.00748,-3.81383 -20.92723,-35.45592 -20.92723,-36.95256 0,-1.82255 18.30394,-33.92325 21.35176,-37.44586 2.10132,-2.42864 3.17138,-2.70588 4.8066,-1.24534 2.34072,2.09069 22.28148,36.69026 22.28148,38.66098 0,1.59082 -17.84635,33.18457 -20.89046,36.98278 -1.25672,1.56803 -2.75497,2.85097 -3.32946,2.85097 -0.57448,0 -2.05621,-1.28294 -3.29269,-2.85097 z m 11.73957,-23.63596 7.69001,-13.42665 -7.69001,-13.42601 c -4.22951,-7.38431 -8.0306,-13.42727 -8.44688,-13.42881 -0.41628,-0.002 -4.17766,6.04017 -8.35864,13.42602 l -7.60177,13.4288 7.60177,13.42566 c 4.18098,7.38411 7.94236,13.4261 8.35864,13.42665 0.41628,5.4e-4 4.21737,-6.04101 8.44688,-13.42566 z M 166.405,901.98889 c -15.76225,-4.81254 -28.84687,-17.00151 -35.98555,-33.52239 -3.27718,-7.58425 -3.96182,-11.53832 -3.98898,-23.03753 -0.0292,-12.40798 0.48955,-15.02367 4.8868,-24.63657 2.78076,-6.07907 7.82342,-13.63546 11.59884,-17.38078 l 6.67926,-6.626 -4.03012,-0.88374 c -2.21654,-0.48604 -8.7984,-1.67091 -14.62631,-2.63304 -11.39342,-1.88094 -13.76084,-3.22611 -12.39913,-7.04515 1.25011,-3.50604 11.74614,-4.79563 40.40341,-4.96409 l 24.97679,-0.14679 12.86683,7.12537 c 7.07676,3.91896 14.67496,8.50088 16.88487,10.18204 2.20992,1.68116 5.0563,3.05666 6.32529,3.05666 1.26899,0 3.2074,0.92588 4.30756,2.05754 1.10017,1.13164 3.8219,3.31143 6.0483,4.84396 2.22639,1.53255 4.46281,4.19304 4.96981,5.91221 0.507,1.71917 2.34428,3.52608 4.08283,4.01539 2.45304,0.69037 5.42635,-1.64196 13.27519,-10.41342 5.56279,-6.21668 10.96215,-11.30305 11.99856,-11.30305 1.03644,0 3.51126,-1.88919 5.49961,-4.1982 2.50652,-2.91071 7.67337,-5.3998 16.84813,-8.11643 11.61374,-3.43881 16.4055,-3.91494 39.16058,-3.89108 28.74623,0.0301 34.8406,1.01444 34.8406,5.62714 0,3.76405 -11.17715,7.24244 -23.42144,7.28889 -8.2082,0.0311 -8.24974,0.056 -4.54123,2.72496 6.76778,4.87054 12.40871,11.04283 16.81306,18.39677 4.26013,7.11312 4.33775,7.66094 4.33775,30.61101 0,19.81057 -0.4415,24.29963 -2.89989,29.48582 -4.01176,8.46306 -15.35091,19.28078 -25.59613,24.41909 -7.27213,3.64721 -10.68672,4.31245 -22.24627,4.33413 -12.37265,0.0233 -14.59433,-0.47176 -23.6486,-5.26892 -17.92767,-9.49848 -29.24016,-27.14447 -31.09324,-48.50138 l -0.94951,-10.94312 -2.7247,3.85983 c -2.29876,3.25642 -3.1797,3.55864 -5.63525,1.93326 -2.70875,-1.79298 -2.97868,-1.27853 -3.89309,7.41989 -2.10132,19.98888 -14.63221,38.32498 -32.05933,46.9115 -9.99288,4.92361 -26.84474,6.42681 -37.0653,3.30626 z m 33.69964,-10.52018 c 17.62017,-8.38834 27.58718,-25.07 27.66696,-46.3058 0.0439,-11.70059 -0.24977,-12.85865 -4.49422,-17.71969 -13.65376,-15.63722 -25.8317,-22.3923 -47.95095,-26.59823 l -12.59885,-2.39564 -7.95045,5.60554 c -26.22401,18.48952 -28.47637,57.62394 -4.56769,79.36299 13.84544,12.58902 33.65,15.78458 49.8952,8.05083 z m -28.32273,-22.20977 c -6.3908,-2.99691 -14.01457,-12.86969 -15.20312,-19.68807 -1.70824,-9.79981 0.53947,-17.23444 7.46336,-24.68607 10.16151,-10.93605 23.3269,-11.6252 33.75941,-1.76715 9.98794,9.43795 12.15813,21.4766 6.09573,33.81459 -5.98475,12.17998 -20.52616,17.76135 -32.11538,12.3267 z m 150.93607,22.20977 c 9.88698,-4.70684 19.93314,-15.24593 24.08957,-25.27152 5.25751,-12.68152 5.04343,-29.8427 -0.52446,-42.0443 -7.44414,-16.31329 -23.07157,-27.93321 -37.40616,-27.8137 -8.59754,0.0717 -14.13726,2.78867 -25.90084,12.70334 -4.63088,3.90304 -9.22888,7.09644 -10.21778,7.09644 -0.98889,0 -1.81902,0.91638 -1.84477,2.0364 -0.0257,1.12003 -3.05739,4.47679 -6.737,7.45949 -5.72365,4.6396 -6.8437,6.5225 -7.75277,13.03301 -3.14899,22.55242 10.68502,46.30377 31.67073,54.37488 9.90193,3.80828 24.73395,3.134 34.62348,-1.57404 z M 292.8815,870.88806 c -6.3908,-2.9969 -14.01456,-12.86968 -15.20311,-19.68806 -1.70825,-9.79981 0.53947,-17.23444 7.46335,-24.68608 10.16151,-10.93604 23.3269,-11.62519 33.75942,-1.76714 9.98793,9.43794 12.15813,21.4766 6.09573,33.81458 -5.98476,12.17998 -20.52617,17.76135 -32.11539,12.3267 z"
       id="path3115"
       inkscape:connector-curvature="0" />
  </g>
</svg>
